<?xml version="1.0" encoding="UTF-8"?>
<svg xmlns="http://www.w3.org/2000/svg" version="1.1" viewBox="0 0 329.4 174.6">
  <defs>
    <style>
      .cls-1 {
        fill: #ffcb05;
      }

      .cls-2 {
        fill: #383c41;
      }

      .cls-3 {
        fill: #fff;
      }

      .cls-4 {
        fill: #333;
      }

      .cls-5 {
        fill: none;
        stroke: #ffcb05;
        stroke-miterlimit: 10;
      }
    </style>
  </defs>
  <!-- Generator: Adobe Illustrator 28.7.3, SVG Export Plug-In . SVG Version: 1.2.0 Build 164)  -->
  <g>
    <g id="Layer_1">
      <g>
        <g id="BG">
          <rect class="cls-2" x="-1028.8" y="-629.6" width="841.9" height="566.9"/>
        </g>
        <g id="graphics">
          <g>
            <path class="cls-1" d="M105.4,79.7c1.7-1.2,3.4-2.2,5.2-3.1,5.1-27.5,29.2-48.3,58.2-48.3s53.2,21,58.2,48.7c1.9.7,3.6,1.6,5.3,2.6l6.6-4.5-12.3-3.1,9.1-8.9-12.7-.9,7.4-10.3-12.6,1.3,5.5-11.4-12.2,3.5,3.4-12.2-11.4,5.5,1.3-12.6-10.3,7.4-.9-12.7-8.9,9.1-3.1-12.3-7.1,10.5-5.2-11.6-5.2,11.6-7.1-10.5-3.1,12.3-8.9-9.1-.9,12.7-10.3-7.4,1.3,12.6-11.4-5.5,3.4,12.2-12.2-3.5,5.5,11.4-12.6-1.3,7.4,10.3-12.7.9,9.1,8.9-12.3,3.1,6.7,4.6h0Z"/>
            <path class="cls-1" d="M124.6,73.8c20.9-22.7,57.3-21.2,76.2,3.4,6-2.5,12.5-3.3,19.1-2.2-5.6-23-26.4-40.2-51.1-40.2s-45.1,16.8-51,39.5c2.4-.5,4.8-.6,6.8-.6h0Z"/>
            <path class="cls-5" d="M249.5,129.8c0-.2-.1-.4-.2-.6,0,0,0,0,0,0-.6-1.4-1.3-2.9-2.3-4.4-1.3-2.2-3.2-4-5.4-5.5-4.2-3.3-9.6-5.3-15.3-5.3s-1.2,0-1.8,0c-1,0-2,0-2.9.2,7.4-4.1,20-.7,21.2,1,.4-2.4.6-4.8.4-7.4h0c-1.7-21.2-25.6-34.2-44.4-22.3-4.3,2.7-7.8,6.4-10.2,11-13.7-9.2-32.4-1.1-35,15.3,0,.4,0,.8-.1,1.3-2-19.3,19.3-31.8,35.1-21.2,2-3.8,4.8-7,8.1-9.5-7.9-11-20.8-18.2-35.4-18.2s-26,6.4-34,16.3c-1.2-.2-2.4-.3-3.6-.3-10.2,0-19,6.1-23,14.8,8.7-1.3,17.4,1.1,24.2,6.1-7.9-3.8-17.3-4.3-25.9-.9-21.8,8.5-27.9,36.5-11.7,53.3,7.1,7.4,17.5,11.3,28.4,9.7.8-9.3,5.7-17.4,12.8-22.4-5.2,5.7-8.2,13.3-8,21.4.5,20.9,21.3,34.6,39.9,28.4h0c6.3-1.9,13.2-6.9,17.3-14.2,14.9,11.1,36.2,6.3,45-9.8-3.5-.7-7.4-2.6-10.3-6.9,4,2.6,8.7,4.2,13.8,4.2,13.8,0,24.9-11.2,24.9-24.9s-.6-6.2-1.7-9.1h0Z"/>
          </g>
          <rect class="cls-3" x="29.1" y="104.2" width="288" height="108.8"/>
          <g>
            <path class="cls-4" d="M9.7,143h11c.1,2.2.9,3.8,2.4,4.9,1.6,1.1,3.8,1.6,6.5,1.6s3.6-.4,5-1.1c1.3-.8,1.9-1.8,1.9-3.1,0-1.9-2.3-3.4-6.8-4.4-1.9-.3-3.4-.6-4.4-1-5.7-1.4-9.5-3.1-11.5-5-2.2-1.9-3.2-4.5-3.2-7.8s1.6-7.5,4.7-10.2c3.2-2.5,7.4-3.7,12.6-3.7s10.1,1.2,13.4,3.7c3.1,2.7,4.8,6.2,5,10.5h-7c-2,0-3.6-.9-4.7-2.8l-1.3-1.3c-1.3-1-3.1-1.5-5.3-1.5s-3.8.3-4.9,1c-1,.7-1.5,1.6-1.5,2.9s2.8,3.2,8.4,4.4c.6.2,1.2.4,1.7.5.5.1.9.2,1.4.2,5.5,1.4,9.3,3,11.5,4.9,2,1.9,3.1,4.5,3.1,7.8,0,4.8-1.7,8.4-5.2,11-3.2,2.4-8.1,3.6-14.6,3.6s-10.7-1.2-13.8-3.7c-3.1-2.5-4.7-6.1-4.7-10.8v-.5h0Z"/>
            <path class="cls-4" d="M88.8,114.2v25.2c0,7.7-2,12.7-6,15-4,2.4-8.4,3.6-13.1,3.6-4.6-.2-8.9-1.5-12.7-3.9-3.8-2.4-5.7-7.3-5.7-14.7v-25.2h11.3v27.5c0,2.6.8,4.5,2.3,5.7,1.5,1.2,3.2,1.8,5.2,1.8s3.7-.6,5.3-1.8c1.6-1.2,2.3-3.1,2.3-5.7v-22c0-1.5.5-2.8,1.5-3.9,1-1.1,2.3-1.6,4-1.6,0,0,5.7,0,5.7,0Z"/>
            <path class="cls-4" d="M129.8,157.2h-5.7c-1.6,0-2.9-.5-4-1.5-1-1-1.5-2.3-1.5-4v-22c0-2.6-.8-4.5-2.3-5.7s-3.3-1.8-5.3-1.8-3.7.6-5.2,1.8-2.3,3.1-2.3,5.7v27.5h-11.3v-25.2c0-7.3,1.9-12.2,5.7-14.7,3.8-2.5,8.1-3.8,12.7-4,4.7,0,9.1,1.2,13.1,3.7s6,7.5,6,15v25.2h0Z"/>
            <path class="cls-4" d="M163.1,144h8.1c-1.2,4.5-3.4,8-6.8,10.4-3.3,2.5-7.6,3.7-12.6,3.7s-10.9-2-14.4-6c-3.4-3.9-5.2-9.4-5.2-16.7s1.7-12.3,5-16.2c3.4-4,8.2-6,14.4-6s11.5,1.9,15,5.8c1.9,2.4,3.3,5.1,4.2,8.2h-11.3c-.5-1.1-1.1-1.9-1.6-2.4-1.4-1.5-3.4-2.3-6-2.3s-4.3.8-5.8,2.3c-1.9,2.2-2.9,5.7-2.9,10.7s1,8.5,2.9,10.5c1.4,1.7,3.5,2.6,6.3,2.6s3.4-.4,4.7-1.1c.3-.1.6-.3.9-.6l.9-.9c.2-.3.6-.8,1.3-1.3.6-.5,1.6-.8,2.9-.8h0Z"/>
            <path class="cls-4" d="M175.1,101.6h5.8c1.5,0,2.8.5,3.9,1.5s1.6,2.3,1.6,3.8v50.3h-11.3v-55.6Z"/>
            <path class="cls-4" d="M195.4,153.4c-2.3-1.9-3.9-4.6-4.9-7.8s-1.5-6.7-1.5-10.3.4-5.8,1.2-8.7,2.1-5.3,3.8-7.3c2.8-3.2,6.4-5.2,10.8-5.7,4.4-.6,8.4-.2,12,1.1,4.1,1.6,7.1,4.4,9.1,8.4,1.8,3.6,2.8,7.7,2.8,12.4s-.4,6.4-1.1,8.9c-.8,2.5-1.7,4.6-2.9,6.3-2.6,3.6-5.9,5.8-9.9,6.6-3.6,1-7.1,1.1-10.8.2s-6.5-2.2-8.6-4.1h0ZM203.2,124.9c-2.3,2.5-3.3,6.2-3.1,11.1.2,4.9,1.1,8.3,2.8,10.3.6.9,1.8,1.6,3.4,2.2s3.3.6,4.9.2c1.7-.5,3.1-1.7,4.4-3.6,1.3-1.9,2-5.1,2.1-9.4,0-3.9-.6-6.8-1.9-8.7s-2.7-3.2-4.3-3.7-3.2-.6-4.9,0c-1.6.5-2.8,1.1-3.6,1.9h0Z"/>
            <path class="cls-4" d="M269.7,114.2v25.2c0,7.7-2,12.7-6,15-4,2.4-8.4,3.6-13.1,3.6-4.6-.2-8.9-1.5-12.7-3.9-3.8-2.4-5.7-7.3-5.7-14.7v-25.2h11.3v27.5c0,2.6.8,4.5,2.3,5.7,1.5,1.2,3.2,1.8,5.2,1.8s3.7-.6,5.3-1.8c1.6-1.2,2.3-3.1,2.3-5.7v-22c0-1.5.5-2.8,1.5-3.9,1-1.1,2.4-1.6,4-1.6h5.7Z"/>
            <path class="cls-4" d="M301.6,101.4h5.5c1.5,0,2.8.6,3.9,1.7,1.1,1.1,1.6,2.4,1.6,3.8v31.5c0,7.7-2.2,12.8-6.6,15.5s-9.2,4-14.4,4-5.5-.5-8.2-1.4-4.9-2.4-6.5-4.4c-3.1-4-4.7-9.4-4.7-16.3s1.6-12.2,4.7-16.3c3.2-4.2,7.4-6.3,12.5-6.3s5.1.5,7.1,1.6c2.2,1.3,3.9,3,5.2,5v-18.4h0ZM283.1,135.4c0,4.3.8,7.6,2.4,9.9,1.6,2.3,3.9,3.4,7,3.4s5.2-1.1,6.8-3.4c1.5-2.3,2.3-5.6,2.3-9.9s-.8-7-2.4-9.2c-1.7-2.2-4-3.2-7-3.2s-5,1.1-6.6,3.4c-1.6,2.2-2.4,5.2-2.4,9.1h0Z"/>
          </g>
        </g>
      </g>
    </g>
  </g>
</svg>